<?xml version="1.0" encoding="UTF-8" standalone="no"?>
<svg
   width="122"
   height="36"
   viewBox="0 0 122 36"
   fill="none"
   version="1.1"
   id="svg32"
   sodipodi:docname="MaxKB-logo-3d0615e0.svg"
   xmlns:inkscape="http://www.inkscape.org/namespaces/inkscape"
   xmlns:sodipodi="http://sodipodi.sourceforge.net/DTD/sodipodi-0.dtd"
   xmlns="http://www.w3.org/2000/svg"
   xmlns:svg="http://www.w3.org/2000/svg">
  <sodipodi:namedview
     id="namedview32"
     pagecolor="#ffffff"
     bordercolor="#000000"
     borderopacity="0.25"
     inkscape:showpageshadow="2"
     inkscape:pageopacity="0.0"
     inkscape:pagecheckerboard="0"
     inkscape:deskcolor="#d1d1d1"
     showguides="true">
    <sodipodi:guide
       position="38.193694,9.8963964"
       orientation="0,-1"
       id="guide32"
       inkscape:locked="false" />
    <inkscape:page
       x="0"
       y="0"
       width="122"
       height="36"
       id="page2"
       margin="0"
       bleed="0" />
  </sodipodi:namedview>
  <path
     d="m 17.4213,26.7354 h -4.5917 l -1.7019,1.7018 c -0.0997,0.0997 -0.1676,0.2267 -0.1951,0.365 -0.0275,0.1383 -0.0133,0.2816 0.0406,0.4119 0.054,0.1302 0.1453,0.2416 0.2626,0.3199 0.1172,0.0783 0.255,0.1201 0.396,0.1201 h 6.9874 c 0.141,0 0.2788,-0.0418 0.3961,-0.1201 0.1172,-0.0783 0.2086,-0.1897 0.2625,-0.3199 0.054,-0.1303 0.0681,-0.2736 0.0406,-0.4119 -0.0275,-0.1383 -0.0954,-0.2653 -0.1951,-0.365 z"
     fill="url(#paint5_linear_5734_851)"
     id="path6"
     style="fill:url(#paint5_linear_5734_851)" />
  <path
     d="m 30.04,13.3823 h -0.9052 v 6.3676 H 30.04 c 0.0905,0 0.1801,-0.0179 0.2637,-0.0525 0.0836,-0.0346 0.1596,-0.0854 0.2236,-0.1494 0.064,-0.064 0.1147,-0.1399 0.1494,-0.2236 0.0346,-0.0836 0.0524,-0.1732 0.0524,-0.2637 v -4.9892 c 0,-0.1828 -0.0726,-0.3581 -0.2018,-0.4873 C 30.398,13.4549 30.2227,13.3823 30.04,13.3823 Z"
     fill="url(#paint6_linear_5734_851)"
     id="path7"
     style="fill:url(#paint6_linear_5734_851)" />
  <path
     d="m 1.92296,13.3823 h -0.9052 c -0.182775,0 -0.358062,0.0726 -0.487302,0.2019 -0.129239,0.1292 -0.201845,0.3045 -0.201845,0.4873 v 4.9892 c -2e-6,0.0905 0.017822,0.1801 0.052454,0.2637 0.034632,0.0837 0.085394,0.1596 0.149388,0.2236 0.063993,0.064 0.139964,0.1148 0.223576,0.1494 0.083612,0.0346 0.173227,0.0525 0.263729,0.0525 h 0.9052 z"
     fill="url(#paint7_linear_5734_851)"
     id="path8"
     style="fill:url(#paint7_linear_5734_851)" />
  <path
     d="m 19.0238,14.2251 c -0.3418,0 -0.6697,0.1358 -0.9114,0.3775 -0.2417,0.2417 -0.3775,0.5696 -0.3775,0.9114 v 0.9242 c 0,0.3419 0.1358,0.6698 0.3775,0.9115 0.2417,0.2417 0.5696,0.3775 0.9115,0.3775 0.3418,0 0.6697,-0.1358 0.9114,-0.3775 0.2418,-0.2417 0.3776,-0.5696 0.3776,-0.9115 v -0.9241 c 0,-0.1693 -0.0333,-0.3369 -0.0981,-0.4933 C 20.15,14.8644 20.055,14.7223 19.9353,14.6026 19.8156,14.4829 19.6735,14.388 19.5171,14.3232 19.3607,14.2584 19.1931,14.2251 19.0238,14.2251 Z"
     fill="url(#paint8_linear_5734_851)"
     id="path9"
     style="fill:url(#paint8_linear_5734_851)" />
  <path
     d="m 12.3012,14.2251 c -0.3419,0 -0.6697,0.1358 -0.9115,0.3775 -0.2417,0.2417 -0.3775,0.5696 -0.3775,0.9114 v 0.9242 c 0,0.3419 0.1358,0.6698 0.3775,0.9115 0.2418,0.2417 0.5696,0.3775 0.9115,0.3775 0.3419,0 0.6697,-0.1358 0.9115,-0.3775 0.2417,-0.2417 0.3775,-0.5696 0.3775,-0.9115 v -0.9241 c 0,-0.1693 -0.0333,-0.3369 -0.0981,-0.4933 -0.0648,-0.1564 -0.1597,-0.2985 -0.2794,-0.4182 -0.1197,-0.1197 -0.2618,-0.2146 -0.4182,-0.2794 -0.1564,-0.0648 -0.3241,-0.0981 -0.4933,-0.0981 z"
     fill="url(#paint9_linear_5734_851)"
     id="path10"
     style="fill:url(#paint9_linear_5734_851)" />
  <path
     d="M 23.3607,6.91309 H 7.69709 C 6.3139,6.91465 4.98782,7.46481 4.00976,8.44287 3.0317,9.42092 2.48154,10.747 2.47998,12.1302 v 8.8307 c 0.00156,1.3832 0.55171,2.7093 1.52977,3.6874 0.97806,0.9781 2.30415,1.5283 3.68734,1.5298 H 23.3607 c 1.3832,-0.0015 2.7093,-0.5517 3.6874,-1.5298 0.9781,-0.978 1.5283,-2.3041 1.5298,-3.6874 V 12.1302 C 28.5763,10.747 28.0262,9.4209 27.0481,8.44284 26.07,7.46478 24.7439,6.91463 23.3607,6.91309 Z m 0.4381,13.99511 c 0,0.2493 -0.099,0.4883 -0.2753,0.6645 -0.1762,0.1763 -0.4152,0.2753 -0.6645,0.2753 h -7.6401 c -1.156,0 -2.2926,0.2971 -3.3008,0.8628 L 9.355,24.149 V 21.848 H 8.19882 c -0.24924,0 -0.48827,-0.099 -0.6645,-0.2752 C 7.35808,21.3966 7.25907,21.1575 7.25906,20.9083 v -9.3615 c 1e-5,-0.2492 0.09902,-0.4883 0.27526,-0.6645 0.17624,-0.1762 0.41526,-0.2752 0.6645,-0.2752 H 22.859 c 0.2492,0 0.4882,0.099 0.6645,0.2752 0.1762,0.1762 0.2752,0.4153 0.2752,0.6645 z"
     fill="url(#paint10_linear_5734_851)"
     id="path11"
     style="fill:url(#paint10_linear_5734_851)" />
  <defs
     id="defs32">
    <linearGradient
       id="paint5_linear_5734_851"
       x1="15.1255"
       y1="26.735399"
       x2="15.1255"
       y2="29.6542"
       gradientUnits="userSpaceOnUse">
      <stop
         stop-color="#3370FF"
         id="stop21" />
      <stop
         offset="1"
         stop-color="#7F3BF5"
         id="stop22" />
    </linearGradient>
    <linearGradient
       id="paint6_linear_5734_851"
       x1="29.9319"
       y1="13.3823"
       x2="29.9319"
       y2="19.749901"
       gradientUnits="userSpaceOnUse">
      <stop
         stop-color="#3370FF"
         id="stop23" />
      <stop
         offset="1"
         stop-color="#7F3BF5"
         id="stop24" />
    </linearGradient>
    <linearGradient
       id="paint7_linear_5734_851"
       x1="1.12576"
       y1="13.3823"
       x2="1.12576"
       y2="19.749901"
       gradientUnits="userSpaceOnUse">
      <stop
         stop-color="#3370FF"
         id="stop25" />
      <stop
         offset="1"
         stop-color="#7F3BF5"
         id="stop26" />
    </linearGradient>
    <linearGradient
       id="paint8_linear_5734_851"
       x1="19.0238"
       y1="14.2251"
       x2="19.0238"
       y2="17.727301"
       gradientUnits="userSpaceOnUse">
      <stop
         stop-color="#3370FF"
         id="stop27" />
      <stop
         offset="1"
         stop-color="#7F3BF5"
         id="stop28" />
    </linearGradient>
    <linearGradient
       id="paint9_linear_5734_851"
       x1="12.3012"
       y1="14.2251"
       x2="12.3012"
       y2="17.727301"
       gradientUnits="userSpaceOnUse">
      <stop
         stop-color="#3370FF"
         id="stop29" />
      <stop
         offset="1"
         stop-color="#7F3BF5"
         id="stop30" />
    </linearGradient>
    <linearGradient
       id="paint10_linear_5734_851"
       x1="15.5289"
       y1="6.9130902"
       x2="15.5289"
       y2="26.1782"
       gradientUnits="userSpaceOnUse">
      <stop
         stop-color="#3370FF"
         id="stop31" />
      <stop
         offset="1"
         stop-color="#7F3BF5"
         id="stop32" />
    </linearGradient>
  </defs>
  <path
     style="font-weight:bold;font-size:21.0674px;font-family:'Microsoft YaHei UI';-inkscape-font-specification:'Microsoft YaHei UI Bold';fill:#634ef9;stroke-width:1.12861"
     d="M 52.358638,25.825859 H 48.881695 L 42.133543,15.518469 Q 41.608915,14.716097 41.372319,14.22233 h -0.05143 q 0.09258,0.822945 0.09258,2.540844 v 9.062685 H 38.193692 V 9.8915805 h 3.703254 L 48.398214,19.91094 q 0.64807,0.997821 0.792085,1.265278 h 0.05143 Q 49.138865,20.600156 49.138865,18.974839 V 9.8915805 h 3.219773 z m 18.28996,0 v -9.669607 q 0,-1.337286 0.133729,-3.363789 h -0.0823 q -0.308604,1.532735 -0.493767,2.047076 l -3.929564,10.98632 H 63.571269 L 59.590271,14.942407 q -0.144016,-0.390899 -0.504054,-2.149944 h -0.09258 q 0.133729,2.005929 0.133729,4.022145 v 9.011251 H 56.061893 V 9.8915805 h 4.937671 l 3.435797,9.6284605 q 0.432046,1.19327 0.586349,2.242526 h 0.07201 q 0.318892,-1.306426 0.658357,-2.2631 l 3.44608,-9.6078865 H 74.0021 V 25.825859 Z m 7.077328,0 V 9.8915805 h 5.657749 q 2.602565,0 4.011859,0.9875345 1.409294,0.987534 1.409294,2.736293 0,1.296139 -0.87438,2.273386 -0.874379,0.977248 -2.201378,1.347573 v 0.04115 q 1.666464,0.205736 2.684859,1.234418 1.028681,1.028681 1.028681,2.581991 0,2.170518 -1.543022,3.45637 -1.543023,1.275565 -4.217595,1.275565 z m 3.39465,-13.403722 v 3.939851 h 1.61503 q 1.16241,0 1.831053,-0.555488 0.668643,-0.555488 0.668643,-1.553309 0,-1.831054 -2.674572,-1.831054 z m 0,6.501268 v 4.371897 h 2.016216 q 1.285852,0 2.005929,-0.596635 0.730364,-0.596635 0.730364,-1.656178 0,-1.008108 -0.720077,-1.563596 -0.720077,-0.555488 -2.047077,-0.555488 z m 9.998785,1.265279 q 0,-2.808301 1.676751,-4.413045 1.687038,-1.604743 4.526199,-1.604743 2.746579,0 4.361609,1.58417 1.61503,1.573883 1.61503,4.238168 0,2.798014 -1.65618,4.454192 -1.656173,1.656177 -4.485048,1.656177 -2.77744,0 -4.413044,-1.58417 -1.625317,-1.594456 -1.625317,-4.330749 z m 3.363789,-0.04115 q 0,3.404937 2.777441,3.404937 2.664285,0 2.664285,-3.497518 0,-3.332928 -2.684859,-3.332928 -1.306426,0 -2.03679,0.894953 -0.720077,0.894953 -0.720077,2.530556 z m 17.85791,5.544594 q -0.75094,0.411473 -2.27338,0.411473 -3.62096,0 -3.62096,-3.806122 v -5.369718 h -1.8722 V 14.44864 h 1.8722 v -2.499696 l 3.30206,-0.946387 v 3.446083 h 2.59228 v 2.479123 h -2.59228 v 4.793656 q 0,1.820767 1.44016,1.820767 0.55549,0 1.15212,-0.329178 z"
     id="text32"
     aria-label="NMBot" />
</svg>
